<svg width="40" height="40" viewBox="0 0 40 40" fill="none" xmlns="http://www.w3.org/2000/svg">
<path d="M23.46 12.25H15.96C13.8889 12.25 12.21 13.9289 12.21 16V23.5C12.21 25.5711 13.8889 27.25 15.96 27.25H23.46C25.531 27.25 27.21 25.5711 27.21 23.5V16C27.21 13.9289 25.531 12.25 23.46 12.25Z" stroke="#8B8893" stroke-width="1.5" stroke-linecap="round" stroke-linejoin="round"/>
<path d="M22.7097 19.2775C22.8023 19.9017 22.6957 20.5391 22.4051 21.0992C22.1144 21.6593 21.6546 22.1135 21.091 22.3972C20.5273 22.6809 19.8886 22.7797 19.2656 22.6794C18.6426 22.5792 18.0671 22.285 17.6209 21.8389C17.1747 21.3927 16.8805 20.8171 16.7803 20.1941C16.68 19.5711 16.7788 18.9324 17.0625 18.3688C17.3462 17.8051 17.8004 17.3453 18.3605 17.0547C18.9206 16.764 19.5581 16.6574 20.1822 16.75C20.8189 16.8444 21.4084 17.1411 21.8635 17.5962C22.3186 18.0513 22.6153 18.6408 22.7097 19.2775Z" stroke="#8B8893" stroke-width="1.5" stroke-linecap="round" stroke-linejoin="round"/>
<path d="M23.835 15.625H23.8425" stroke="#8B8893" stroke-width="1.5" stroke-linecap="round" stroke-linejoin="round"/>
<circle cx="20" cy="20" r="19.5" stroke="#475569"/>
</svg>
