<svg width="40" height="40" viewBox="0 0 40 40" fill="none" xmlns="http://www.w3.org/2000/svg">
<path d="M21.4019 26.7664C21.4303 26.8374 21.4799 26.898 21.5438 26.94C21.6077 26.9821 21.683 27.0036 21.7595 27.0016C21.836 26.9996 21.91 26.9743 21.9717 26.9291C22.0334 26.8838 22.0798 26.8208 22.1046 26.7484L26.9796 12.4984C27.0036 12.4319 27.0082 12.36 26.9928 12.291C26.9774 12.2221 26.9427 12.1589 26.8928 12.109C26.8428 12.059 26.7797 12.0243 26.7107 12.0089C26.6417 11.9935 26.5698 11.9981 26.5034 12.0221L12.2534 16.8971C12.181 16.9219 12.1179 16.9683 12.0727 17.03C12.0274 17.0917 12.0021 17.1658 12.0001 17.2422C11.9982 17.3187 12.0196 17.394 12.0617 17.4579C12.1037 17.5218 12.1643 17.5714 12.2354 17.5999L18.1829 19.9849C18.3709 20.0601 18.5417 20.1727 18.685 20.3158C18.8284 20.4589 18.9412 20.6295 19.0169 20.8174L21.4019 26.7664Z" stroke="#8B8893" stroke-width="1.5" stroke-linecap="round" stroke-linejoin="round"/>
<path d="M26.8905 12.1121L18.6855 20.3164" stroke="#8B8893" stroke-width="1.5" stroke-linecap="round" stroke-linejoin="round"/>
<circle cx="20" cy="20" r="19.5" stroke="#475569"/>
</svg>
