<svg width="45" height="45" viewBox="0 0 45 45" fill="none" xmlns="http://www.w3.org/2000/svg">
<circle cx="22.5" cy="22.5" r="22.5" fill="#F7F7F7" fill-opacity="0.9"/>
<path d="M31.3332 27.1501V29.6501C31.3341 29.8822 31.2866 30.1119 31.1936 30.3245C31.1006 30.5372 30.9643 30.7281 30.7933 30.885C30.6222 31.0419 30.4203 31.1613 30.2005 31.2357C29.9806 31.31 29.7477 31.3376 29.5165 31.3168C26.9522 31.0381 24.489 30.1619 22.3249 28.7584C20.3114 27.479 18.6043 25.7719 17.3249 23.7584C15.9165 21.5844 15.0401 19.1093 14.7665 16.5334C14.7457 16.303 14.7731 16.0707 14.8469 15.8514C14.9208 15.6322 15.0395 15.4307 15.1955 15.2598C15.3515 15.0889 15.5414 14.9523 15.753 14.8589C15.9647 14.7654 16.1935 14.717 16.4249 14.7168H18.9249C19.3293 14.7128 19.7214 14.856 20.028 15.1197C20.3346 15.3834 20.5349 15.7496 20.5915 16.1501C20.697 16.9501 20.8927 17.7357 21.1749 18.4918C21.287 18.79 21.3112 19.1142 21.2448 19.4258C21.1783 19.7375 21.0239 20.0235 20.7999 20.2501L19.7415 21.3084C20.9278 23.3947 22.6552 25.1221 24.7415 26.3084L25.7999 25.2501C26.0264 25.026 26.3125 24.8716 26.6241 24.8052C26.9358 24.7387 27.2599 24.763 27.5582 24.8751C28.3143 25.1572 29.0998 25.3529 29.8999 25.4584C30.3047 25.5155 30.6744 25.7194 30.9386 26.0313C31.2029 26.3432 31.3433 26.7414 31.3332 27.1501Z" stroke="#353337" stroke-width="1.66667" stroke-linecap="round" stroke-linejoin="round"/>
</svg>
