<svg width="180" height="90" viewBox="0 0 180 90" fill="none" xmlns="http://www.w3.org/2000/svg">
<path fill-rule="evenodd" clip-rule="evenodd" d="M69.7974 0C68.8246 0 67.8556 0.118821 66.9117 0.353823L66.5534 0.443023C65.289 0.757823 64.0902 1.32179 63.0414 2.08778C61.7661 3.01913 60.7168 4.25097 60.0059 5.66695C59.3103 7.0523 58.9481 8.58101 58.9481 10.1312V11.5916L57.9043 12.0768C56.907 12.5402 56.0711 13.2911 55.5036 14.233C54.9857 15.0925 54.7121 16.0769 54.7121 17.0804V17.9725H56.2121L54.7183 18.1088C54.8816 19.8977 55.6947 21.5647 57.0039 22.7947L57.9838 23.7153C58.2163 24.0192 58.343 24.3918 58.343 24.7759V33.1721C58.343 34.2897 58.4993 35.4018 58.8076 36.4761C59.4087 38.5716 60.5703 40.4634 62.1672 41.9476L62.579 42.3304V47.9041V49.4041H64.079H69.727H71.227V47.9041V43.1767H105.544V48.105V49.605H107.044H113.298H114.798V48.105V42.2139L116.272 40.4192L116.333 40.3453L116.384 40.2644L116.925 39.4021C117.291 38.8178 117.596 38.1965 117.832 37.5485C118.227 36.4682 118.429 35.3271 118.429 34.1771V25.3174C118.429 24.1992 119.003 23.1584 119.949 22.5616C120.648 22.1206 121.253 21.545 121.729 20.8684L121.863 20.6776C122.516 19.7488 122.866 18.6412 122.866 17.5059C122.866 16.4818 122.581 15.4779 122.043 14.6066L121.837 14.2734C121.162 13.1807 120.195 12.2983 119.045 11.7258L118.428 11.4189C118.419 9.66289 118.004 7.93251 117.216 6.36268C116.787 5.5092 116.253 4.7129 115.626 3.99249L115.28 3.59488C114.164 2.31196 112.751 1.32048 111.166 0.706272C109.96 0.239465 108.679 0 107.386 0H88.4876H69.7974ZM59.1686 14.7973L60.7796 14.0486H61.6397C62.2899 14.0486 62.9267 14.2334 63.4759 14.5814C63.9379 14.8742 64.3232 15.2732 64.5996 15.7451L64.6616 15.851C65.015 16.4543 65.2013 17.141 65.2013 17.8402V25.7065V30.0341C65.2013 31.0337 65.4118 32.0221 65.8192 32.9349L65.9912 33.3202C66.1454 33.6657 66.3468 33.9882 66.5896 34.2784C67.3669 35.2073 68.5159 35.744 69.7271 35.744H84.4523H107.016C108.013 35.744 108.983 35.4217 109.782 34.825C110.536 34.2616 111.1 33.4814 111.399 32.5886L111.487 32.3261C111.676 31.7625 111.772 31.1721 111.772 30.5778V25.7065V19.9813V18.6643C111.772 17.5311 112.17 16.434 112.898 15.565L112.921 15.537C113.18 15.2276 113.479 14.954 113.81 14.7233C114.477 14.2582 115.256 13.9802 116.067 13.9181L116.63 13.8749L117.708 14.4113C118.357 14.7347 118.903 15.2331 119.285 15.8504L119.491 16.1836C119.736 16.581 119.866 17.0389 119.866 17.5059C119.866 18.0237 119.706 18.5289 119.409 18.9525L119.275 19.1433C119.027 19.4951 118.712 19.7947 118.348 20.0242C116.531 21.1702 115.429 23.1687 115.429 25.3174V34.1771C115.429 34.9761 115.288 35.7689 115.014 36.5195C114.85 36.9697 114.638 37.4014 114.384 37.8074L113.893 38.5887L112.589 40.1767H107.044H69.727H64.6684L64.2096 39.7502C63.0126 38.6376 62.1419 37.2196 61.6912 35.6487C61.4602 34.8435 61.343 34.0098 61.343 33.1721V24.7759C61.343 23.6625 60.9514 22.5845 60.2369 21.7306L59.0865 22.6932L60.1136 21.6L59.058 20.6083C58.2989 19.8951 57.8217 18.9335 57.7121 17.8991V17.0804C57.7121 16.6225 57.8369 16.1733 58.0732 15.7812C58.3321 15.3514 58.7136 15.0088 59.1686 14.7973ZM114.535 7.70877C115.046 8.72727 115.344 9.83747 115.413 10.9715C114.222 11.1309 113.083 11.5726 112.094 12.2623C111.545 12.6449 111.05 13.0987 110.62 13.6117L110.597 13.6397C109.418 15.0486 108.772 16.8272 108.772 18.6643V19.9813V24.2065H99.3792H99.3473L99.3153 24.2078L92.7659 24.4874C92.3385 24.5056 91.9136 24.5613 91.496 24.6537C90.4067 24.8948 89.3869 25.3816 88.5145 26.077L88.4871 26.0988L87.7863 25.5407C87.4496 25.2726 87.0857 25.0407 86.7004 24.8489C85.8519 24.4264 84.9168 24.2065 83.9689 24.2065H77.5939H68.2013V17.8402C68.2013 16.608 67.873 15.398 67.2502 14.3347L67.1882 14.2288C66.67 13.3442 65.9478 12.5963 65.0818 12.0475C64.1393 11.4501 63.0592 11.1093 61.9481 11.056V10.1312C61.9481 9.04843 62.2011 7.98066 62.6869 7.01303C63.1815 6.02799 63.9163 5.16365 64.8107 4.51048C65.5496 3.97081 66.3943 3.5742 67.2782 3.35416L67.6364 3.26496C68.3433 3.08898 69.0689 3 69.7974 3H88.4876H107.386C108.308 3 109.222 3.17082 110.082 3.5038C111.213 3.94192 112.221 4.64917 113.017 5.56431L113.363 5.96191C113.825 6.49287 114.219 7.07974 114.535 7.70877ZM99.4112 27.2065H108.772V30.5778C108.772 30.8484 108.728 31.1172 108.642 31.3739L108.554 31.6364C108.449 31.9498 108.251 32.2237 107.987 32.4214C107.706 32.6309 107.366 32.744 107.016 32.744H89.9876V28.7392L90.3844 28.4229C90.8994 28.0125 91.5013 27.7251 92.1443 27.5828C92.3908 27.5283 92.6416 27.4954 92.8938 27.4846L99.4112 27.2065ZM86.9876 28.7397V32.744H84.4523H69.7271C69.4041 32.744 69.0976 32.6009 68.8903 32.3531C68.8256 32.2757 68.7719 32.1897 68.7307 32.0976L68.5588 31.7123C68.3231 31.1842 68.2013 30.6124 68.2013 30.0341V27.2065H77.5939H83.9689C84.4528 27.2065 84.9301 27.3187 85.3632 27.5344C85.5599 27.6323 85.7456 27.7507 85.9175 27.8875L86.9876 28.7397ZM108.544 43.1767H111.798V46.605H108.544V43.1767ZM65.579 46.4041V43.1767H68.227V46.4041H65.579ZM70.5192 10.3389C71.2908 10.3389 71.9163 9.70931 71.9163 8.93269C71.9163 8.15608 71.2908 7.52651 70.5192 7.52651C69.7476 7.52651 69.122 8.15608 69.122 8.93269C69.122 9.70931 69.7476 10.3389 70.5192 10.3389ZM108.225 8.93269C108.225 9.70931 107.6 10.3389 106.828 10.3389C106.056 10.3389 105.431 9.70931 105.431 8.93269C105.431 8.15608 106.056 7.52651 106.828 7.52651C107.6 7.52651 108.225 8.15608 108.225 8.93269ZM70.5192 22.3919C71.2908 22.3919 71.9163 21.7623 71.9163 20.9857C71.9163 20.2091 71.2908 19.5795 70.5192 19.5795C69.7476 19.5795 69.122 20.2091 69.122 20.9857C69.122 21.7623 69.7476 22.3919 70.5192 22.3919ZM108.225 20.9857C108.225 21.7623 107.6 22.3919 106.828 22.3919C106.056 22.3919 105.431 21.7623 105.431 20.9857C105.431 20.2091 106.056 19.5795 106.828 19.5795C107.6 19.5795 108.225 20.2091 108.225 20.9857ZM88.6736 22.3919C89.4452 22.3919 90.0707 21.7623 90.0707 20.9857C90.0707 20.2091 89.4452 19.5795 88.6736 19.5795C87.9019 19.5795 87.2764 20.2091 87.2764 20.9857C87.2764 21.7623 87.9019 22.3919 88.6736 22.3919ZM90.0707 8.93269C90.0707 9.70931 89.4452 10.3389 88.6736 10.3389C87.9019 10.3389 87.2764 9.70931 87.2764 8.93269C87.2764 8.15608 87.9019 7.52651 88.6736 7.52651C89.4452 7.52651 90.0707 8.15608 90.0707 8.93269ZM79.7978 16.3654C80.5694 16.3654 81.1949 15.7358 81.1949 14.9592C81.1949 14.1826 80.5694 13.553 79.7978 13.553C79.0262 13.553 78.4006 14.1826 78.4006 14.9592C78.4006 15.7358 79.0262 16.3654 79.7978 16.3654ZM99.3497 14.9592C99.3497 15.7358 98.7241 16.3654 97.9525 16.3654C97.1809 16.3654 96.5554 15.7358 96.5554 14.9592C96.5554 14.1826 97.1809 13.553 97.9525 13.553C98.7241 13.553 99.3497 14.1826 99.3497 14.9592ZM21.917 88.83C21.917 89.2033 22.127 89.39 22.547 89.39C22.897 89.39 23.2587 89.2617 23.632 89.005C24.0053 88.7717 24.192 88.4683 24.192 88.095C24.1687 87.4183 24.1453 86.8467 24.122 86.38C24.0987 85.89 24.087 85.4117 24.087 84.945V84.21C24.1103 83.9767 24.1337 83.72 24.157 83.44C24.2737 82.3433 24.472 81.2933 24.752 80.29C25.032 79.2867 25.347 78.26 25.697 77.21C26.047 76.16 26.362 75.04 26.642 73.85C26.8287 73.0567 26.9803 72.4267 27.097 71.96C27.237 71.4933 27.3653 71.0267 27.482 70.56C27.5987 70.0933 27.7387 69.4633 27.902 68.67C27.9487 68.39 27.867 68.1567 27.657 67.97C27.4703 67.76 27.2487 67.655 26.992 67.655C26.712 67.655 26.502 67.76 26.362 67.97C25.8953 68.6233 25.487 69.1833 25.137 69.65C24.787 70.1167 24.3553 70.665 23.842 71.295C22.932 72.415 22.1387 73.4183 21.462 74.305C20.7853 75.1917 20.0737 76.0317 19.327 76.825C18.5803 77.595 17.6587 78.3883 16.562 79.205C15.8853 79.695 15.267 80.0917 14.707 80.395C14.147 80.6983 13.5287 81.0483 12.852 81.445C12.6653 81.2117 12.4903 80.955 12.327 80.675C11.907 79.975 11.6037 79.3217 11.417 78.715C11.2303 78.085 11.102 77.42 11.032 76.72C10.9853 76.02 10.9387 75.215 10.892 74.305C10.8453 72.9283 10.892 71.6217 11.032 70.385C11.1953 69.1483 11.277 68.1333 11.277 67.34C11.277 66.8733 11.2303 66.5117 11.137 66.255V66.22C11.0437 65.94 10.892 65.73 10.682 65.59C10.472 65.45 10.2503 65.38 10.017 65.38C9.807 65.38 9.62034 65.45 9.457 65.59C9.29367 65.7067 9.212 65.905 9.212 66.185C9.18867 67.235 9.14201 68.18 9.072 69.02C9.02534 69.86 9.00199 70.7233 9.00199 71.61C9.00199 72.0533 9.01367 72.52 9.037 73.01C9.06033 73.4767 9.10701 73.9783 9.177 74.515C9.29367 75.355 9.37533 76.16 9.42201 76.93C9.492 77.6767 9.62034 78.4233 9.807 79.17C10.017 79.9167 10.3553 80.71 10.822 81.55C11.0087 81.8533 11.1953 82.1333 11.382 82.39C11.592 82.6233 11.7903 82.8683 11.977 83.125C12.1403 83.3583 12.327 83.475 12.537 83.475C12.677 83.475 12.8637 83.4167 13.097 83.3C13.657 82.9733 14.1353 82.67 14.532 82.39C14.9287 82.0867 15.3137 81.7717 15.687 81.445C16.0837 81.095 16.562 80.7217 17.122 80.325C18.0087 79.6483 18.7553 79.0533 19.362 78.54C19.992 78.0267 20.552 77.5133 21.042 77C21.5553 76.4867 22.057 75.9383 22.547 75.355C23.0603 74.7483 23.6437 74.0367 24.297 73.22L24.647 72.87L25.207 72.31C25.3937 72.1233 25.4987 72.0067 25.522 71.96L24.927 74.445C24.6937 75.5183 24.402 76.4867 24.052 77.35C23.702 78.2133 23.3753 79.1117 23.072 80.045C22.7687 80.955 22.5587 82.0283 22.442 83.265C22.3487 84.2217 22.232 85.1667 22.092 86.1C21.9753 87.0333 21.917 87.9433 21.917 88.83ZM0.566996 89.53C0.986994 89.7867 1.39533 89.915 1.792 89.915C2.11866 89.915 2.37533 89.8567 2.56201 89.74C2.79533 89.5767 2.912 89.4017 2.912 89.215C2.912 89.0283 2.83033 88.8417 2.667 88.655C2.527 88.4683 2.37533 88.2817 2.212 88.095C2.072 87.9083 2.00199 87.7333 2.00199 87.57C2.14199 85.68 2.41033 83.9767 2.807 82.46C3.20367 80.9433 3.69367 79.4733 4.277 78.05C4.88366 76.6033 5.572 75.075 6.34201 73.465C6.45867 73.2083 6.63366 72.8467 6.867 72.38C7.12367 71.9133 7.36866 71.4233 7.602 70.91C7.85867 70.3733 8.08033 69.9067 8.26699 69.51C8.45367 69.1133 8.55867 68.8567 8.582 68.74H8.54701C8.617 68.2267 8.48867 67.97 8.162 67.97C7.81201 67.97 7.48533 68.25 7.182 68.81C6.692 69.7433 6.07366 70.945 5.32701 72.415C4.60366 73.8617 3.857 75.4717 3.087 77.245C2.34033 78.995 1.67533 80.815 1.09201 82.705C0.532008 84.5717 0.170329 86.4033 0.00699873 88.2C-0.0396626 88.83 0.146998 89.2733 0.566996 89.53ZM31.4602 89.495C31.7169 89.565 31.9386 89.6 32.1252 89.6C32.6152 89.6 32.8602 89.46 32.8602 89.18C32.8602 89.0633 32.7669 88.9 32.5802 88.69C32.4169 88.5033 32.1252 88.305 31.7052 88.095C31.4486 87.8617 31.1219 87.5583 30.7252 87.185C30.3286 86.7883 29.9786 86.3217 29.6752 85.785C29.3952 85.225 29.2552 84.5833 29.2552 83.86V83.65C29.2552 83.5567 29.2669 83.4633 29.2902 83.37C29.2902 83.2767 29.3019 83.195 29.3252 83.125C29.3486 83.0317 29.3602 82.9383 29.3602 82.845V82.81C29.8502 82.88 30.3869 82.915 30.9702 82.915C31.8802 82.915 32.8486 82.8333 33.8752 82.67C34.9252 82.5067 35.8586 82.2617 36.6752 81.935C37.2119 81.725 37.7603 81.445 38.3202 81.095C38.9036 80.7217 39.3819 80.2783 39.7552 79.765C40.1519 79.2517 40.3502 78.68 40.3502 78.05C40.3502 76.93 39.9536 76.125 39.1602 75.635C38.3669 75.145 37.4102 74.9 36.2902 74.9C35.8469 74.9 35.3919 74.9467 34.9252 75.04C34.4586 75.11 33.9919 75.2033 33.5252 75.32C32.8019 75.5067 31.9969 75.9383 31.1102 76.615C30.2469 77.2683 29.4652 78.1083 28.7652 79.135C28.0886 80.1617 27.6452 81.34 27.4352 82.67C27.4119 82.8333 27.3886 83.0083 27.3652 83.195V83.72C27.3652 84.9333 27.6919 86.0883 28.3452 87.185C28.9986 88.2583 30.0369 89.0283 31.4602 89.495ZM34.1203 81.2C33.3502 81.2933 32.6152 81.34 31.9152 81.34C31.5186 81.34 31.1336 81.3283 30.7602 81.305C30.4102 81.2583 30.0952 81.2233 29.8152 81.2C30.1419 80.3833 30.5502 79.6833 31.0402 79.1C31.5302 78.4933 32.0086 78.015 32.4752 77.665C32.9652 77.315 33.3736 77.0933 33.7002 77C34.6102 76.72 35.4502 76.58 36.2202 76.58C36.8969 76.58 37.4219 76.6967 37.7952 76.93C38.1686 77.1633 38.3552 77.5133 38.3552 77.98C38.3552 78.5867 38.1336 79.1117 37.6902 79.555C37.2469 79.975 36.7686 80.3133 36.2552 80.57C35.6019 80.8733 34.8902 81.0833 34.1203 81.2ZM41.6174 87.745C42.1773 87.9083 42.7724 87.99 43.4024 87.99C44.079 87.99 44.744 87.92 45.3974 87.78C46.6807 87.5233 47.9757 87.08 49.2824 86.45C50.589 85.7967 51.7907 85.015 52.8874 84.105C53.984 83.195 54.859 82.2033 55.5124 81.13C56.189 80.0567 56.5274 78.9833 56.5274 77.91C56.5274 77.1633 56.329 76.475 55.9324 75.845C55.5357 75.1917 54.859 74.865 53.9024 74.865C53.2724 74.865 52.5257 75.0283 51.6623 75.355C50.799 75.6583 50.0407 75.9733 49.3874 76.3C48.594 76.6733 47.894 77.0933 47.2873 77.56C46.6807 78.0033 46.1324 78.4467 45.6423 78.89C46.459 76.8367 47.1707 75.0517 47.7774 73.535C48.4074 72.0183 48.9557 70.6883 49.4224 69.545C49.889 68.3783 50.2974 67.2933 50.6474 66.29V66.255V66.115C50.6707 66.045 50.6824 65.9983 50.6824 65.975C50.6824 65.695 50.554 65.4733 50.2974 65.31C50.064 65.1233 49.819 65.03 49.5624 65.03C49.189 65.03 48.944 65.205 48.8274 65.555C48.594 66.2317 48.3607 67.025 48.1273 67.935C47.894 68.845 47.5907 69.8017 47.2174 70.805C46.914 71.5983 46.5874 72.52 46.2373 73.57C45.8874 74.5967 45.514 75.6467 45.1174 76.72C44.744 77.7933 44.359 78.7733 43.9624 79.66C43.5657 80.5467 43.1807 81.2233 42.8074 81.69C42.644 81.8767 42.5624 82.0633 42.5624 82.25C42.5624 82.4833 42.6674 82.67 42.8773 82.81C43.0874 82.9267 43.309 82.985 43.5424 82.985C43.7757 82.985 43.9624 82.915 44.1024 82.775C44.8257 82.0283 45.5257 81.305 46.2024 80.605C46.879 79.905 47.6957 79.24 48.6524 78.61C49.2357 78.2367 49.854 77.8983 50.5074 77.595C51.1607 77.2917 51.7907 77.0467 52.3974 76.86C53.004 76.6733 53.494 76.58 53.8674 76.58C54.4974 76.58 54.8124 76.9183 54.8124 77.595C54.8124 78.505 54.544 79.4033 54.0074 80.29C53.4707 81.1767 52.759 82.005 51.8724 82.775C50.9857 83.545 49.994 84.2217 48.8974 84.805C47.8007 85.3883 46.6923 85.82 45.5724 86.1C45.339 86.1467 45.024 86.1933 44.6273 86.24C44.254 86.2867 43.8923 86.31 43.5424 86.31H43.0874C42.9474 86.2867 42.819 86.2633 42.7024 86.24C42.329 86.1233 42.0373 85.9483 41.8274 85.715C41.6407 85.4817 41.4774 85.2833 41.3374 85.12C41.1974 84.98 41.0574 84.91 40.9174 84.91C40.6607 84.91 40.4157 85.0617 40.1824 85.365C39.9723 85.6683 39.8674 85.9833 39.8674 86.31C39.8674 86.59 39.949 86.8117 40.1123 86.975C40.5557 87.3483 41.0574 87.605 41.6174 87.745ZM57.9747 88.165C58.348 88.4683 58.7213 88.62 59.0947 88.62C59.3513 88.62 59.538 88.5733 59.6547 88.48C59.888 88.3167 60.0047 88.1417 60.0047 87.955C60.0047 87.7683 59.923 87.5817 59.7597 87.395C59.6197 87.2083 59.468 87.0217 59.3047 86.835C59.1647 86.6483 59.0947 86.4733 59.0947 86.31C59.1413 85.7033 59.3047 84.8867 59.5847 83.86C59.888 82.8333 60.273 81.6783 60.7397 80.395C61.2063 79.1117 61.7197 77.805 62.2797 76.475C62.8397 75.1217 63.3997 73.8383 63.9597 72.625C64.2163 72.0883 64.508 71.6217 64.8347 71.225C65.1613 70.8283 65.4413 70.4433 65.6747 70.07C65.7913 69.86 65.8963 69.5917 65.9897 69.265C66.1063 68.9383 66.188 68.6233 66.2347 68.32C66.3047 68.0167 66.3397 67.8183 66.3397 67.725C66.3397 67.445 66.258 67.235 66.0947 67.095C65.9313 66.9317 65.7447 66.85 65.5347 66.85C65.1613 66.85 64.8697 67.0367 64.6597 67.41C64.333 68.04 63.9363 68.8683 63.4697 69.895C63.003 70.8983 62.513 72.03 61.9997 73.29C61.4863 74.5267 60.973 75.81 60.4597 77.14C59.9697 78.4467 59.503 79.7183 59.0597 80.955C58.6397 82.1917 58.2897 83.3233 58.0097 84.35C57.753 85.3533 57.5897 86.1583 57.5197 86.765C57.473 87.4183 57.6247 87.885 57.9747 88.165ZM70.1516 74.235C70.3383 74.3517 70.49 74.34 70.6066 74.2C70.98 73.7333 71.26 73.3017 71.4466 72.905C71.6566 72.5083 71.7966 72.2633 71.8666 72.17C71.9366 72.0533 71.9716 71.9483 71.9716 71.855C71.9716 71.6683 71.8783 71.5167 71.6916 71.4C71.5283 71.26 71.3416 71.19 71.1316 71.19C70.8983 71.19 70.7116 71.26 70.5716 71.4C70.3383 71.6333 70.1516 71.8667 70.0116 72.1C69.8716 72.3333 69.755 72.625 69.6616 72.975H69.6266C69.58 73.2083 69.615 73.4533 69.7316 73.71C69.8483 73.9433 69.9883 74.1183 70.1516 74.235ZM65.0766 86.695C65.45 86.975 65.8233 87.115 66.1966 87.115C66.4533 87.115 66.64 87.0683 66.7566 86.975C66.99 86.8117 67.1066 86.625 67.1066 86.415C67.1066 86.135 66.955 85.89 66.6516 85.68C66.3483 85.4467 66.1966 85.295 66.1966 85.225C66.2433 84.4083 66.3483 83.7433 66.5116 83.23C66.6983 82.6933 66.92 82.2033 67.1766 81.76C67.4333 81.2933 67.7133 80.7567 68.0166 80.15C68.32 79.5433 68.6233 78.75 68.9266 77.77C69.02 77.4433 68.95 77.1867 68.7166 77C68.4833 76.8133 68.215 76.72 67.9116 76.72C67.4683 76.72 67.1766 76.9183 67.0366 77.315C66.78 78.1783 66.5233 78.9133 66.2666 79.52C66.0333 80.1267 65.8116 80.6983 65.6016 81.235C65.3916 81.7483 65.205 82.32 65.0416 82.95C64.8783 83.58 64.75 84.35 64.6566 85.26C64.5866 85.9133 64.7266 86.3917 65.0766 86.695ZM83.7016 88.725C84.9149 89.2617 86.2566 89.53 87.7266 89.53C88.1232 89.53 88.5199 89.5067 88.9166 89.46C89.3132 89.4367 89.7099 89.3783 90.1066 89.285C91.6699 88.9817 92.8832 88.5617 93.7466 88.025C94.6099 87.5117 95.2399 87.0333 95.6366 86.59C96.0332 86.1233 96.3132 85.8433 96.4766 85.75C96.7099 85.61 96.8732 85.4117 96.9666 85.155C97.0832 84.8983 97.1416 84.6533 97.1416 84.42C97.1416 84 97.0016 83.79 96.7216 83.79C96.6282 83.79 96.5116 83.825 96.3716 83.895C95.9982 84.1983 95.5666 84.5833 95.0766 85.05C94.6099 85.5167 93.9566 85.9833 93.1166 86.45C92.2999 86.8933 91.1682 87.29 89.7216 87.64C89.0916 87.78 88.4732 87.85 87.8666 87.85C86.6066 87.85 85.4749 87.6283 84.4716 87.185C83.4682 86.7183 82.7799 86.2283 82.4066 85.715C81.8932 84.9683 81.6366 84.0817 81.6366 83.055C81.6366 81.8883 81.9282 80.675 82.5116 79.415C83.0949 78.1317 83.7832 76.9767 84.5766 75.95C85.4866 74.76 86.5832 73.6283 87.8666 72.555C89.1732 71.4817 90.5266 70.56 91.9266 69.79C93.3499 69.02 94.6682 68.5183 95.8816 68.285C95.9982 68.2617 96.1149 68.25 96.2316 68.25C96.3716 68.2267 96.4999 68.215 96.6166 68.215C97.4799 68.215 98.2266 68.46 98.8566 68.95C99.5099 69.4167 99.8366 69.9183 99.8366 70.455V70.49C99.8366 70.8867 100.023 71.085 100.397 71.085C100.653 71.085 100.922 70.9683 101.202 70.735C101.505 70.5017 101.657 70.21 101.657 69.86C101.47 68.6933 100.91 67.8417 99.9766 67.305C99.0432 66.7683 98.0399 66.5 96.9666 66.5C96.4299 66.5 95.9632 66.5467 95.5666 66.64C94.1432 66.92 92.6732 67.48 91.1566 68.32C89.6399 69.1367 88.1932 70.1167 86.8166 71.26C85.4399 72.4033 84.2499 73.6283 83.2466 74.935C82.7099 75.635 82.1732 76.4283 81.6366 77.315C81.1232 78.1783 80.7032 79.0883 80.3766 80.045C80.0499 80.9783 79.8866 81.935 79.8866 82.915C79.8866 83.5683 79.9799 84.21 80.1666 84.84C80.3532 85.4467 80.6449 86.0533 81.0416 86.66C81.6249 87.5233 82.5116 88.2117 83.7016 88.725ZM102.083 86.87L102.503 86.94H102.923C103.879 86.94 104.766 86.765 105.583 86.415C106.399 86.0417 107.134 85.5867 107.788 85.05C108.441 84.5133 108.978 83.9767 109.398 83.44C109.864 82.9733 110.203 82.4833 110.413 81.97C110.623 81.4567 110.728 80.9783 110.728 80.535C110.728 79.8117 110.494 79.205 110.028 78.715C109.561 78.2017 108.908 77.945 108.068 77.945H107.823C107.753 77.945 107.671 77.9567 107.578 77.98C107.111 78.0267 106.656 78.0967 106.213 78.19C105.769 78.2833 105.384 78.3883 105.058 78.505C104.708 78.6217 104.533 78.8667 104.533 79.24C104.533 79.45 104.603 79.6483 104.743 79.835C104.906 80.0217 105.104 80.115 105.338 80.115C105.408 80.115 105.513 80.0917 105.653 80.045C105.909 79.9283 106.213 79.8467 106.563 79.8C106.913 79.73 107.274 79.6717 107.648 79.625C107.881 79.6017 108.138 79.6717 108.418 79.835C108.698 79.9983 108.838 80.3133 108.838 80.78C108.838 80.99 108.791 81.2583 108.698 81.585C108.604 81.8883 108.429 82.2383 108.173 82.635C107.659 83.3117 106.924 83.9417 105.968 84.525C105.034 85.085 104.054 85.365 103.028 85.365H102.713C102.619 85.365 102.514 85.3533 102.398 85.33C101.954 85.33 101.558 85.0733 101.208 84.56C100.881 84.0467 100.718 83.4283 100.718 82.705C100.718 82.2383 100.799 81.7717 100.963 81.305C101.173 80.6983 101.511 80.15 101.978 79.66C102.444 79.1467 102.969 78.7383 103.553 78.435C104.136 78.1317 104.708 77.98 105.268 77.98C105.478 77.98 105.629 77.9917 105.723 78.015C106.049 78.085 106.306 78.0383 106.493 77.875C106.703 77.6883 106.808 77.5017 106.808 77.315C106.808 77.035 106.621 76.8483 106.248 76.755C105.898 76.6617 105.524 76.615 105.128 76.615C104.334 76.615 103.553 76.8017 102.783 77.175C102.013 77.5483 101.336 78.05 100.753 78.68C100.169 79.2867 99.7376 79.9633 99.4576 80.71C99.2009 81.4333 99.0726 82.1217 99.0726 82.775C99.0726 83.7783 99.3292 84.6883 99.8426 85.505C100.379 86.2983 101.126 86.7533 102.083 86.87ZM130.813 87.43C131.047 87.8733 131.455 88.095 132.038 88.095C132.202 88.095 132.318 88.0367 132.388 87.92C132.458 87.8033 132.493 87.6633 132.493 87.5C132.493 87.0567 132.365 86.6483 132.108 86.275C132.202 85.6683 132.365 84.8983 132.598 83.965C132.855 83.0317 133.158 82.1567 133.508 81.34C133.905 80.4533 134.173 79.7067 134.313 79.1C134.477 78.47 134.558 77.945 134.558 77.525C134.558 76.895 134.407 76.4633 134.103 76.23C133.8 75.9967 133.45 75.88 133.053 75.88C132.727 75.88 132.388 75.9383 132.038 76.055C131.688 76.1483 131.385 76.2533 131.128 76.37C130.288 76.7433 129.565 77.105 128.958 77.455C128.375 77.7817 127.815 78.1667 127.278 78.61C126.765 79.03 126.17 79.5783 125.493 80.255C125.19 80.5583 124.91 80.85 124.653 81.13C124.42 81.3867 124.14 81.6433 123.813 81.9C123.837 80.6167 123.743 79.6367 123.533 78.96C123.347 78.2833 123.102 77.8167 122.798 77.56C122.495 77.28 122.157 77.14 121.783 77.14C121.55 77.14 121.317 77.175 121.083 77.245C120.85 77.315 120.628 77.4083 120.418 77.525C119.625 77.875 118.96 78.19 118.423 78.47C117.887 78.75 117.373 79.0767 116.883 79.45C116.417 79.8233 115.857 80.3367 115.203 80.99C114.9 81.2933 114.643 81.5383 114.433 81.725C114.247 81.8883 114.025 82.1683 113.768 82.565C113.838 81.9117 114.013 81.305 114.293 80.745C114.597 80.1617 114.888 79.6717 115.168 79.275C115.448 78.855 115.588 78.575 115.588 78.435C115.635 78.1083 115.565 77.8517 115.378 77.665C115.215 77.4783 115.005 77.385 114.748 77.385C114.375 77.385 114.083 77.5717 113.873 77.945C113.547 78.5983 113.185 79.3683 112.788 80.255C112.415 81.1183 112.1 81.9933 111.843 82.88C111.587 83.7667 111.458 84.56 111.458 85.26C111.458 86.0533 111.68 86.45 112.123 86.45C112.31 86.45 112.508 86.3333 112.718 86.1L112.928 85.47C113.092 85.05 113.465 84.5133 114.048 83.86C114.608 83.2533 115.285 82.6 116.078 81.9C116.872 81.2 117.677 80.57 118.493 80.01C119.31 79.45 120.033 79.0767 120.663 78.89C121.013 78.7733 121.27 78.855 121.433 79.135C121.62 79.415 121.737 79.8117 121.783 80.325C121.853 80.815 121.888 81.34 121.888 81.9V82.25C121.865 82.25 121.818 82.4017 121.748 82.705C121.678 82.985 121.55 83.6733 121.363 84.77C121.293 85.1433 121.34 85.4233 121.503 85.61C121.69 85.7733 121.9 85.855 122.133 85.855C122.483 85.855 122.787 85.7033 123.043 85.4C123.207 85.2133 123.428 84.875 123.708 84.385C123.988 83.895 124.292 83.4633 124.618 83.09C125.225 82.4133 125.948 81.725 126.788 81.025C127.628 80.325 128.468 79.695 129.308 79.135C130.172 78.575 130.93 78.2017 131.583 78.015C131.677 77.9683 131.758 77.945 131.828 77.945H132.073C132.377 77.945 132.528 78.1083 132.528 78.435C132.528 78.855 132.237 79.7183 131.653 81.025C131.397 81.6083 131.14 82.355 130.883 83.265C130.627 84.1517 130.498 85.0033 130.498 85.82C130.498 86.45 130.603 86.9867 130.813 87.43ZM136.456 89.39C136.666 89.6933 136.888 89.845 137.121 89.845C137.284 89.845 137.459 89.7867 137.646 89.67C137.833 89.53 137.961 89.39 138.031 89.25C138.101 89.1333 138.136 89.0283 138.136 88.935C138.136 88.725 138.078 88.515 137.961 88.305C137.844 88.1183 137.786 87.9083 137.786 87.675C137.763 87.0217 137.844 86.1933 138.031 85.19C138.241 84.1633 138.509 83.0667 138.836 81.9C139.163 80.7333 139.513 79.59 139.886 78.47C140.259 77.3267 140.621 76.3 140.971 75.39C141.438 75.3433 142.114 75.32 143.001 75.32C143.911 75.2967 144.763 75.2383 145.556 75.145C145.789 75.1217 145.941 75.0633 146.011 74.97C146.104 74.8533 146.151 74.7483 146.151 74.655C146.151 74.4917 146.093 74.34 145.976 74.2C145.859 74.06 145.743 73.9783 145.626 73.955C145.066 73.885 144.564 73.8383 144.121 73.815C143.701 73.7917 143.293 73.78 142.896 73.78H142.266C142.056 73.78 141.846 73.7917 141.636 73.815C141.846 73.3483 142.079 72.835 142.336 72.275C142.593 71.715 142.838 71.2017 143.071 70.735C143.304 70.245 143.491 69.9067 143.631 69.72C144.518 68.3667 145.323 67.69 146.046 67.69C146.746 67.69 147.399 68.2967 148.006 69.51C148.309 70.0933 148.496 70.5483 148.566 70.875C148.659 71.1783 148.869 71.33 149.196 71.33C149.359 71.33 149.511 71.2833 149.651 71.19C149.791 71.0967 149.861 70.9567 149.861 70.77V70.735C149.814 69.9417 149.721 69.3233 149.581 68.88C149.464 68.4133 149.208 67.8767 148.811 67.27C148.508 66.7567 148.134 66.3833 147.691 66.15C147.248 65.9167 146.781 65.8 146.291 65.8C145.638 65.8 144.984 65.9983 144.331 66.395C143.678 66.7683 143.118 67.3283 142.651 68.075C142.348 68.565 141.951 69.335 141.461 70.385C140.994 71.4117 140.493 72.59 139.956 73.92H139.746C139.536 73.92 139.314 74.06 139.081 74.34C138.848 74.62 138.778 74.9117 138.871 75.215C138.894 75.4717 139.023 75.6233 139.256 75.67H139.291C138.754 77.1167 138.241 78.5983 137.751 80.115C137.284 81.6317 136.899 83.055 136.596 84.385C136.316 85.715 136.176 86.8467 136.176 87.78C136.176 88.55 136.269 89.0867 136.456 89.39ZM146.887 86.94H147.307C148.264 86.94 149.15 86.765 149.967 86.415C150.784 86.0417 151.519 85.5867 152.172 85.05C152.825 84.5133 153.362 83.9767 153.782 83.44C154.249 82.9733 154.587 82.4833 154.797 81.97C155.007 81.4567 155.112 80.9783 155.112 80.535C155.112 79.8117 154.879 79.205 154.412 78.715C153.945 78.2017 153.292 77.945 152.452 77.945H152.207C152.137 77.945 152.055 77.9567 151.962 77.98C151.495 78.0267 151.04 78.0967 150.597 78.19C150.154 78.2833 149.769 78.3883 149.442 78.505C149.092 78.6217 148.917 78.8667 148.917 79.24C148.917 79.45 148.987 79.6483 149.127 79.835C149.29 80.0217 149.489 80.115 149.722 80.115C149.792 80.115 149.897 80.0917 150.037 80.045C150.294 79.9283 150.597 79.8467 150.947 79.8C151.297 79.73 151.659 79.6717 152.032 79.625C152.265 79.6017 152.522 79.6717 152.802 79.835C153.082 79.9983 153.222 80.3133 153.222 80.78C153.222 80.99 153.175 81.2583 153.082 81.585C152.989 81.8883 152.814 82.2383 152.557 82.635C152.044 83.3117 151.309 83.9417 150.352 84.525C149.419 85.085 148.439 85.365 147.412 85.365H147.097C147.004 85.365 146.899 85.3533 146.782 85.33C146.339 85.33 145.942 85.0733 145.592 84.56C145.265 84.0467 145.102 83.4283 145.102 82.705C145.102 82.2383 145.184 81.7717 145.347 81.305C145.557 80.6983 145.895 80.15 146.362 79.66C146.829 79.1467 147.354 78.7383 147.937 78.435C148.52 78.1317 149.092 77.98 149.652 77.98C149.862 77.98 150.014 77.9917 150.107 78.015C150.434 78.085 150.69 78.0383 150.877 77.875C151.087 77.6883 151.192 77.5017 151.192 77.315C151.192 77.035 151.005 76.8483 150.632 76.755C150.282 76.6617 149.909 76.615 149.512 76.615C148.719 76.615 147.937 76.8017 147.167 77.175C146.397 77.5483 145.72 78.05 145.137 78.68C144.554 79.2867 144.122 79.9633 143.842 80.71C143.585 81.4333 143.457 82.1217 143.457 82.775C143.457 83.7783 143.714 84.6883 144.227 85.505C144.764 86.2983 145.51 86.7533 146.467 86.87L146.887 86.94ZM157.103 86.8C157.29 86.9633 157.488 87.045 157.698 87.045C157.931 87.045 158.141 86.9633 158.328 86.8C158.538 86.6133 158.643 86.3917 158.643 86.135C158.643 85.9483 158.62 85.7617 158.573 85.575C158.526 85.3883 158.503 85.2717 158.503 85.225C158.503 84.9683 158.526 84.735 158.573 84.525C158.643 84.315 158.678 84.1283 158.678 83.965C159.355 83.1017 160.09 82.3317 160.883 81.655C161.7 80.9783 162.493 80.4183 163.263 79.975C164.033 79.5083 164.675 79.1933 165.188 79.03C165.608 78.89 165.981 78.82 166.308 78.82C166.845 78.82 167.276 78.9833 167.603 79.31C167.953 79.6133 168.21 80.0333 168.373 80.57C168.49 80.8967 168.63 81.13 168.793 81.27C168.98 81.41 169.155 81.48 169.318 81.48C169.738 81.48 169.948 81.2933 169.948 80.92C169.948 79.94 169.773 79.1817 169.423 78.645C169.073 78.1083 168.63 77.735 168.093 77.525C167.556 77.315 167.02 77.21 166.483 77.21C165.736 77.21 165.13 77.3267 164.663 77.56C163.59 78.05 162.726 78.5517 162.073 79.065C161.42 79.5783 160.685 80.2317 159.868 81.025C160.008 80.745 160.171 80.325 160.358 79.765L160.918 78.085C161.128 77.525 161.303 77.1167 161.443 76.86C161.583 76.6033 161.653 76.37 161.653 76.16C161.653 75.9033 161.56 75.705 161.373 75.565C161.21 75.4017 161 75.32 160.743 75.32C160.51 75.32 160.276 75.4017 160.043 75.565C159.833 75.7283 159.67 75.9967 159.553 76.37C159.39 76.9533 159.133 77.7583 158.783 78.785C158.433 79.7883 158.083 80.8617 157.733 82.005C157.406 83.1483 157.138 84.2333 156.928 85.26L156.858 85.61V85.89C156.858 86.31 156.94 86.6133 157.103 86.8ZM175.668 89.495C175.738 89.5183 175.82 89.53 175.913 89.53C176.24 89.53 176.508 89.46 176.718 89.32C176.951 89.18 177.068 89.0167 177.068 88.83C177.068 88.69 176.975 88.5383 176.788 88.375C176.625 88.235 176.333 88.095 175.913 87.955C175.213 87.745 174.583 87.3833 174.023 86.87C173.463 86.3567 173.183 85.575 173.183 84.525V84.07L173.253 83.58C173.44 82.5533 173.685 81.4567 173.988 80.29C174.315 79.1233 174.746 77.8283 175.283 76.405C175.82 76.3817 176.426 76.37 177.103 76.37C177.78 76.3467 178.398 76.3 178.958 76.23C179.215 76.2067 179.378 76.1483 179.448 76.055C179.541 75.9383 179.588 75.8217 179.588 75.705C179.588 75.5417 179.53 75.39 179.413 75.25C179.296 75.11 179.18 75.0283 179.063 75.005C178.433 74.935 177.861 74.8883 177.348 74.865C176.858 74.8417 176.38 74.83 175.913 74.83C176.1 74.4333 176.275 74.0367 176.438 73.64C176.625 73.2433 176.823 72.8233 177.033 72.38L179.203 67.655C179.25 67.515 179.273 67.4217 179.273 67.375C179.273 67.1883 179.18 67.0483 178.993 66.955C178.83 66.8383 178.631 66.78 178.398 66.78C178.165 66.78 177.931 66.8383 177.698 66.955C177.488 67.0483 177.325 67.2 177.208 67.41C176.788 68.2033 176.275 69.2883 175.668 70.665C175.085 72.0183 174.501 73.4533 173.918 74.97L172.868 75.005C172.681 75.005 172.483 75.1217 172.273 75.355C172.063 75.5883 171.958 75.8333 171.958 76.09C171.958 76.5333 172.145 76.755 172.518 76.755C172.635 76.755 172.751 76.7317 172.868 76.685C172.985 76.6383 173.113 76.615 173.253 76.615H173.288C172.845 77.8283 172.46 78.995 172.133 80.115C171.83 81.2117 171.62 82.1683 171.503 82.985C171.433 83.4983 171.398 83.9767 171.398 84.42C171.398 85.54 171.596 86.45 171.993 87.15C172.39 87.8267 172.891 88.34 173.498 88.69C174.128 89.04 174.77 89.2967 175.423 89.46C175.516 89.4833 175.598 89.495 175.668 89.495Z" fill="#FEFFFF"/>
</svg>
