<svg width="111" height="54" viewBox="0 0 111 54" fill="none" xmlns="http://www.w3.org/2000/svg">
<path fill-rule="evenodd" clip-rule="evenodd" d="M43.1405 0C42.5392 0 41.9403 0.07136 41.3569 0.212495L41.1354 0.266065C40.3539 0.455124 39.613 0.793824 38.9647 1.25385C38.1765 1.81319 37.5279 2.55299 37.0885 3.40338C36.6586 4.23538 36.4347 5.15347 36.4347 6.08447V6.96154L35.7896 7.25293C35.1732 7.53123 34.6565 7.9822 34.3057 8.54787C33.9856 9.06406 33.8165 9.65526 33.8165 10.2579V10.7937H34.7437L33.8204 10.8756C33.9213 11.9499 34.4239 12.9511 35.2331 13.6897L35.8387 14.2426C35.9824 14.4251 36.0607 14.6489 36.0607 14.8796V19.9221C36.0607 20.5933 36.1573 21.2612 36.3479 21.9063C36.7194 23.1648 37.4374 24.301 38.4244 25.1924L38.6789 25.4222V28.7696V29.6705H39.606H43.097H44.0241V28.7696V25.9305H65.2348V28.8903V29.7911H66.1619H70.0274H70.9545V28.8903V25.3523L71.8656 24.2744L71.9033 24.2301L71.9348 24.1815L72.2692 23.6636C72.4954 23.3127 72.6839 22.9396 72.8298 22.5504C73.0739 21.9016 73.1988 21.2163 73.1988 20.5256V15.2048C73.1988 14.5332 73.5535 13.9082 74.1382 13.5498C74.5703 13.2849 74.9442 12.9392 75.2384 12.5329L75.3213 12.4183C75.7249 11.8605 75.9412 11.1953 75.9412 10.5135C75.9412 9.89843 75.765 9.29552 75.4325 8.77224L75.3052 8.57214C74.888 7.9159 74.2903 7.38596 73.5795 7.04213L73.1981 6.85782C73.1926 5.80321 72.9361 4.76401 72.449 3.82122C72.1839 3.30865 71.8538 2.83041 71.4663 2.39776L71.2524 2.15897C70.5626 1.38849 69.6893 0.793037 68.7096 0.424164C67.9642 0.143815 67.1725 0 66.3733 0H54.6925H43.1405ZM36.571 8.88677L37.5667 8.43713H38.0984C38.5002 8.43713 38.8938 8.54811 39.2333 8.75711C39.5188 8.93296 39.757 9.17258 39.9278 9.45599L39.9661 9.51959C40.1846 9.88191 40.2997 10.2943 40.2997 10.7142V15.4385V18.0375C40.2997 18.6378 40.4298 19.2314 40.6816 19.7796L40.7879 20.011C40.8832 20.2185 41.0077 20.4122 41.1578 20.5865C41.6382 21.1444 42.3484 21.4667 43.097 21.4667H52.1984H66.1446C66.7608 21.4667 67.3604 21.2731 67.8542 20.9148C68.3202 20.5764 68.6688 20.1078 68.8537 19.5716L68.908 19.414C69.0248 19.0755 69.0842 18.7209 69.0842 18.364V15.4385V12.0001V11.2092C69.0842 10.5286 69.3302 9.86972 69.7802 9.34783L69.7944 9.33101C69.9545 9.1452 70.1393 8.98088 70.3438 8.84233C70.7561 8.56301 71.2376 8.39605 71.7389 8.35876L72.0868 8.33281L72.7531 8.65495C73.1543 8.84918 73.4917 9.1485 73.7278 9.51923L73.8552 9.71934C74.0066 9.958 74.0869 10.233 74.0869 10.5135C74.0869 10.8244 73.988 11.1278 73.8045 11.3822L73.7217 11.4968C73.5684 11.7081 73.3737 11.888 73.1487 12.0259C72.0256 12.7141 71.3445 13.9144 71.3445 15.2048V20.5256C71.3445 21.0055 71.2574 21.4816 71.088 21.9324C70.9866 22.2028 70.8556 22.4621 70.6986 22.7059L70.3951 23.1751L69.5892 24.1288H66.1619H43.097H39.9703L39.6868 23.8727C38.9469 23.2045 38.4088 22.3529 38.1302 21.4094C37.9874 20.9259 37.915 20.4252 37.915 19.9221V14.8796C37.915 14.2109 37.6729 13.5635 37.2313 13.0507L36.5203 13.6288L37.1551 12.9723L36.5026 12.3767C36.0335 11.9483 35.7385 11.3708 35.6708 10.7496V10.2579C35.6708 9.98293 35.7479 9.71315 35.894 9.47767C36.054 9.21955 36.2898 9.01379 36.571 8.88677ZM70.792 4.62963C71.1078 5.24131 71.292 5.90806 71.3346 6.58912C70.5985 6.68485 69.8945 6.95012 69.2832 7.36434C68.9439 7.59411 68.6379 7.86665 68.3722 8.17474L68.3579 8.19156C67.6292 9.0377 67.2299 10.1059 67.2299 11.2092V12.0001V14.5376H61.4244H61.4047L61.3849 14.5384L57.3369 14.7063C57.0727 14.7173 56.8101 14.7507 56.552 14.8062C55.8787 14.951 55.2484 15.2434 54.7092 15.661L54.6922 15.6741L54.2591 15.3389C54.051 15.1779 53.8261 15.0386 53.5879 14.9234C53.0635 14.6697 52.4855 14.5376 51.8996 14.5376H47.9593H42.154V10.7142C42.154 9.97422 41.951 9.24753 41.5661 8.60895L41.5278 8.54535C41.2075 8.01409 40.7611 7.56492 40.2258 7.23533C39.6433 6.87655 38.9757 6.67188 38.289 6.63987V6.08447C38.289 5.43419 38.4453 4.79292 38.7456 4.2118C39.0513 3.62021 39.5055 3.10112 40.0583 2.70885C40.515 2.38474 41.0371 2.14655 41.5834 2.0144L41.8048 1.96083C42.2417 1.85514 42.6902 1.8017 43.1405 1.8017H54.6925H66.3733C66.9432 1.8017 67.5081 1.90429 68.0396 2.10427C68.7387 2.36739 69.3617 2.79214 69.8537 3.34174L70.0676 3.58053C70.3531 3.8994 70.5966 4.25186 70.792 4.62963ZM61.4442 16.3393H67.2299V18.364C67.2299 18.5265 67.2028 18.688 67.1496 18.8421L67.0952 18.9998C67.0303 19.188 66.9079 19.3525 66.7448 19.4712C66.5711 19.597 66.3609 19.665 66.1446 19.665H55.6197V17.2598L55.8649 17.0699C56.1832 16.8234 56.5552 16.6508 56.9527 16.5653C57.105 16.5326 57.26 16.5128 57.4159 16.5063L61.4442 16.3393ZM53.7654 17.2601V19.665H52.1984H43.097C42.8974 19.665 42.7079 19.579 42.5798 19.4302C42.5398 19.3837 42.5066 19.3321 42.4812 19.2768L42.3749 19.0454C42.2292 18.7282 42.154 18.3848 42.154 18.0375V16.3393H47.9593H51.8996C52.1987 16.3393 52.4937 16.4067 52.7614 16.5363C52.883 16.5951 52.9978 16.6662 53.104 16.7483L53.7654 17.2601ZM67.089 25.9305H69.1003V27.9894H67.089V25.9305ZM40.5332 27.8688V25.9305H42.1698V27.8688H40.5332ZM43.5866 6.2092C44.0635 6.2092 44.4501 5.83109 44.4501 5.36468C44.4501 4.89827 44.0635 4.52017 43.5866 4.52017C43.1097 4.52017 42.723 4.89827 42.723 5.36468C42.723 5.83109 43.1097 6.2092 43.5866 6.2092ZM66.8919 5.36468C66.8919 5.83109 66.5056 6.2092 66.0284 6.2092C65.5512 6.2092 65.1649 5.83109 65.1649 5.36468C65.1649 4.89827 65.5512 4.52017 66.0284 4.52017C66.5056 4.52017 66.8919 4.89827 66.8919 5.36468ZM43.5866 13.4478C44.0635 13.4478 44.4501 13.0697 44.4501 12.6033C44.4501 12.1369 44.0635 11.7588 43.5866 11.7588C43.1097 11.7588 42.723 12.1369 42.723 12.6033C42.723 13.0697 43.1097 13.4478 43.5866 13.4478ZM66.8919 12.6033C66.8919 13.0697 66.5056 13.4478 66.0284 13.4478C65.5512 13.4478 65.1649 13.0697 65.1649 12.6033C65.1649 12.1369 65.5512 11.7588 66.0284 11.7588C66.5056 11.7588 66.8919 12.1369 66.8919 12.6033ZM54.8075 13.4478C55.2844 13.4478 55.671 13.0697 55.671 12.6033C55.671 12.1369 55.2844 11.7588 54.8075 11.7588C54.3305 11.7588 53.9439 12.1369 53.9439 12.6033C53.9439 13.0697 54.3305 13.4478 54.8075 13.4478ZM55.671 5.36468C55.671 5.83109 55.2844 6.2092 54.8075 6.2092C54.3305 6.2092 53.9439 5.83109 53.9439 5.36468C53.9439 4.89827 54.3305 4.52017 54.8075 4.52017C55.2844 4.52017 55.671 4.89827 55.671 5.36468ZM49.3215 9.82852C49.7984 9.82852 50.1851 9.45041 50.1851 8.984C50.1851 8.5176 49.7984 8.13949 49.3215 8.13949C48.8446 8.13949 48.4579 8.5176 48.4579 8.984C48.4579 9.45041 48.8446 9.82852 49.3215 9.82852ZM61.4062 8.984C61.4062 9.45041 61.0195 9.82852 60.5426 9.82852C60.0657 9.82852 59.6791 9.45041 59.6791 8.984C59.6791 8.5176 60.0657 8.13949 60.5426 8.13949C61.0195 8.13949 61.4062 8.5176 61.4062 8.984ZM13.5465 53.3484C13.5465 53.5726 13.6763 53.6847 13.9359 53.6847C14.1522 53.6847 14.3758 53.6076 14.6065 53.4535C14.8372 53.3134 14.9526 53.1312 14.9526 52.907C14.9382 52.5006 14.9238 52.1573 14.9094 51.877C14.895 51.5827 14.8877 51.2955 14.8877 51.0152V50.5738C14.9021 50.4337 14.9166 50.2795 14.931 50.1113C15.0031 49.4527 15.1257 48.8221 15.2988 48.2195C15.4718 47.617 15.6665 47.0004 15.8828 46.3698C16.0992 45.7392 16.2939 45.0666 16.4669 44.3519C16.5823 43.8755 16.676 43.4971 16.7482 43.2168C16.8347 42.9365 16.914 42.6563 16.9861 42.376C17.0582 42.0957 17.1448 41.7174 17.2457 41.2409C17.2746 41.0728 17.2241 40.9327 17.0943 40.8206C16.9789 40.6944 16.8419 40.6314 16.6833 40.6314C16.5102 40.6314 16.3804 40.6944 16.2939 40.8206C16.0054 41.2129 15.753 41.5492 15.5367 41.8295C15.3204 42.1098 15.0536 42.4391 14.7363 42.8174C14.1738 43.4901 13.6835 44.0926 13.2653 44.6251C12.847 45.1577 12.4072 45.6621 11.9457 46.1386C11.4841 46.601 10.9145 47.0774 10.2367 47.5679C9.81841 47.8622 9.43625 48.1004 9.09012 48.2826C8.744 48.4648 8.36184 48.675 7.94358 48.9132C7.82819 48.7731 7.72002 48.6189 7.61909 48.4508C7.35949 48.0304 7.17203 47.638 7.05663 47.2736C6.94124 46.8953 6.86194 46.4959 6.81867 46.0755C6.78981 45.6551 6.76101 45.1717 6.73214 44.6251C6.70328 43.7983 6.73214 43.0136 6.81867 42.2709C6.91961 41.5282 6.9701 40.9186 6.9701 40.4422C6.9701 40.1619 6.94124 39.9447 6.88357 39.7906V39.7696C6.82591 39.6014 6.73214 39.4753 6.60235 39.3912C6.47255 39.3071 6.33552 39.2651 6.19132 39.2651C6.06152 39.2651 5.94615 39.3071 5.8452 39.3912C5.74424 39.4613 5.69377 39.5804 5.69377 39.7485C5.67935 40.3791 5.65051 40.9467 5.60723 41.4511C5.57839 41.9556 5.56396 42.4741 5.56396 43.0066C5.56396 43.2729 5.57118 43.5531 5.5856 43.8474C5.60002 44.1277 5.62887 44.4289 5.67213 44.7513C5.74424 45.2557 5.79472 45.7392 5.82357 46.2016C5.86683 46.6501 5.94615 47.0985 6.06152 47.5469C6.19132 47.9953 6.40042 48.4718 6.68888 48.9763C6.80427 49.1584 6.91961 49.3266 7.035 49.4807C7.1648 49.6208 7.28737 49.768 7.40276 49.9222C7.50369 50.0623 7.61909 50.1323 7.74889 50.1323C7.83542 50.1323 7.95081 50.0973 8.09501 50.0273C8.44114 49.831 8.73677 49.6489 8.98196 49.4807C9.22715 49.2986 9.46511 49.1094 9.69584 48.9132C9.94104 48.703 10.2367 48.4788 10.5828 48.2406C11.1308 47.8342 11.5923 47.4768 11.9673 47.1685C12.3567 46.8603 12.7028 46.5519 13.0057 46.2437C13.3229 45.9354 13.633 45.6061 13.9359 45.2557C14.2531 44.8914 14.6137 44.464 15.0175 43.9735L15.2339 43.7633L15.58 43.427C15.6954 43.3149 15.7603 43.2449 15.7747 43.2168L15.4069 44.7092C15.2627 45.3538 15.0824 45.9354 14.8661 46.4539C14.6498 46.9723 14.4478 47.5119 14.2604 48.0724C14.0729 48.6189 13.9431 49.2635 13.871 50.0062C13.8133 50.5808 13.7412 51.1483 13.6547 51.7088C13.5825 52.2693 13.5465 52.8159 13.5465 53.3484ZM0.35045 53.7688C0.610043 53.9229 0.862428 54 1.1076 54C1.3095 54 1.46815 53.965 1.58353 53.8949C1.72774 53.7968 1.79985 53.6917 1.79985 53.5796C1.79985 53.4675 1.74937 53.3554 1.64842 53.2433C1.56189 53.1312 1.46815 53.0191 1.3672 52.907C1.28066 52.7948 1.23739 52.6897 1.23739 52.5917C1.32392 51.4566 1.48978 50.4337 1.73495 49.5228C1.98013 48.6119 2.28299 47.7291 2.64353 46.8743C3.0185 46.0054 3.44395 45.0876 3.91988 44.1207C3.99198 43.9665 4.10014 43.7493 4.24437 43.4691C4.40301 43.1888 4.55443 42.8945 4.69866 42.5862C4.8573 42.2639 4.9943 41.9837 5.10967 41.7454C5.22506 41.5072 5.28995 41.3531 5.30437 41.283H5.28275C5.32601 40.9747 5.24669 40.8206 5.04478 40.8206C4.82846 40.8206 4.62654 40.9887 4.43906 41.325C4.1362 41.8855 3.75402 42.6072 3.29253 43.4901C2.84544 44.3589 2.38394 45.3258 1.90802 46.3908C1.44651 47.4418 1.03549 48.5348 0.674951 49.6699C0.328824 50.791 0.105277 51.891 0.00432578 52.97C-0.0245147 53.3484 0.0908567 53.6146 0.35045 53.7688ZM19.445 53.7478C19.6036 53.7898 19.7407 53.8108 19.856 53.8108C20.1588 53.8108 20.3103 53.7267 20.3103 53.5586C20.3103 53.4885 20.2526 53.3904 20.1372 53.2643C20.0363 53.1522 19.856 53.0331 19.5964 52.907C19.4378 52.7669 19.2359 52.5846 18.9907 52.3605C18.7455 52.1222 18.5292 51.842 18.3417 51.5197C18.1686 51.1833 18.0821 50.798 18.0821 50.3636V50.2374C18.0821 50.1814 18.0893 50.1253 18.1037 50.0693C18.1037 50.0133 18.111 49.9642 18.1254 49.9222C18.1398 49.8661 18.147 49.81 18.147 49.754V49.733C18.4499 49.775 18.7816 49.796 19.1421 49.796C19.7046 49.796 20.3031 49.747 20.9376 49.6489C21.5866 49.5508 22.1635 49.4037 22.6683 49.2075C23 49.0814 23.3389 48.9132 23.685 48.703C24.0456 48.4788 24.3412 48.2125 24.5719 47.9042C24.8171 47.596 24.9397 47.2526 24.9397 46.8743C24.9397 46.2016 24.6946 45.7182 24.2042 45.4239C23.7139 45.1296 23.1225 44.9825 22.4303 44.9825C22.1563 44.9825 21.8751 45.0105 21.5866 45.0666C21.2982 45.1086 21.0098 45.1646 20.7213 45.2347C20.2742 45.3468 19.7767 45.606 19.2286 46.0125C18.695 46.4048 18.2119 46.9093 17.7792 47.5259C17.361 48.1425 17.087 48.8501 16.9572 49.6489C16.9428 49.747 16.9284 49.8521 16.9139 49.9642V50.2795C16.9139 51.0082 17.1158 51.7018 17.5196 52.3605C17.9235 53.005 18.5652 53.4675 19.445 53.7478ZM21.0891 48.7661C20.6131 48.8221 20.1588 48.8501 19.7262 48.8501C19.4811 48.8501 19.2431 48.8431 19.0123 48.8291C18.796 48.8011 18.6013 48.78 18.4282 48.7661C18.6301 48.2756 18.8825 47.8552 19.1854 47.5049C19.4882 47.1405 19.7839 46.8533 20.0723 46.6431C20.3752 46.4329 20.6276 46.2997 20.8295 46.2437C21.3919 46.0755 21.9111 45.9914 22.387 45.9914C22.8053 45.9914 23.1298 46.0615 23.3605 46.2016C23.5913 46.3417 23.7066 46.5519 23.7066 46.8322C23.7066 47.1966 23.5697 47.5119 23.2956 47.7781C23.0216 48.0304 22.726 48.2335 22.4087 48.3877C22.0049 48.5699 21.565 48.696 21.0891 48.7661ZM25.7229 52.6968C26.069 52.7948 26.4368 52.8439 26.8262 52.8439C27.2444 52.8439 27.6554 52.8019 28.0593 52.7178C28.8525 52.5636 29.6529 52.2974 30.4605 51.919C31.2681 51.5267 32.0109 51.0572 32.6887 50.5107C33.3665 49.9642 33.9073 49.3686 34.3112 48.724C34.7294 48.0794 34.9385 47.4348 34.9385 46.7902C34.9385 46.3418 34.8159 45.9284 34.5708 45.55C34.3256 45.1577 33.9073 44.9615 33.3161 44.9615C32.9267 44.9615 32.4652 45.0595 31.9315 45.2557C31.3979 45.4379 30.9292 45.6271 30.5254 45.8233C30.035 46.0475 29.6024 46.2997 29.2274 46.58C28.8525 46.8462 28.5136 47.1125 28.2107 47.3787C28.7154 46.1456 29.1553 45.0736 29.5303 44.1627C29.9197 43.2518 30.2586 42.4531 30.5471 41.7664C30.8355 41.0658 31.0879 40.4141 31.3042 39.8116V39.7906V39.7065C31.3186 39.6645 31.3258 39.6364 31.3258 39.6224C31.3258 39.4543 31.2465 39.3211 31.0879 39.223C30.9436 39.1109 30.7922 39.0549 30.6336 39.0549C30.4028 39.0549 30.2514 39.16 30.1793 39.3702C30.035 39.7766 29.8908 40.253 29.7466 40.7995C29.6024 41.3461 29.4149 41.9206 29.1842 42.5232C28.9967 42.9996 28.7948 43.5531 28.5784 44.1837C28.3621 44.8003 28.1314 45.4309 27.8862 46.0755C27.6554 46.7201 27.4175 47.3087 27.1723 47.8412C26.9271 48.3737 26.6892 48.7801 26.4585 49.0603C26.3575 49.1725 26.307 49.2845 26.307 49.3967C26.307 49.5368 26.3719 49.6489 26.5017 49.733C26.6315 49.8031 26.7685 49.8381 26.9127 49.8381C27.0569 49.8381 27.1723 49.796 27.2589 49.712C27.7059 49.2635 28.1386 48.8291 28.5568 48.4087C28.975 47.9883 29.4798 47.5889 30.0711 47.2106C30.4317 46.9864 30.8138 46.7832 31.2177 46.601C31.6215 46.4189 32.0109 46.2717 32.3859 46.1596C32.7608 46.0475 33.0636 45.9914 33.2944 45.9914C33.6838 45.9914 33.8785 46.1946 33.8785 46.601C33.8785 47.1475 33.7126 47.687 33.381 48.2195C33.0492 48.7521 32.6094 49.2495 32.0614 49.712C31.5133 50.1744 30.9004 50.5808 30.2226 50.9311C29.5447 51.2814 28.8596 51.5407 28.1674 51.7088C28.0232 51.7369 27.8285 51.7649 27.5833 51.7929C27.3526 51.821 27.129 51.8349 26.9127 51.8349H26.6315C26.545 51.821 26.4656 51.8069 26.3936 51.7929C26.1628 51.7228 25.9825 51.6177 25.8527 51.4776C25.7373 51.3375 25.6364 51.2184 25.5499 51.1203C25.4633 51.0362 25.3768 50.9942 25.2903 50.9942C25.1316 50.9942 24.9802 51.0853 24.836 51.2674C24.7061 51.4496 24.6413 51.6387 24.6413 51.8349C24.6413 52.0031 24.6917 52.1363 24.7927 52.2343C25.0667 52.4585 25.3768 52.6127 25.7229 52.6968ZM35.8331 52.949C36.0638 53.1312 36.2945 53.2223 36.5253 53.2223C36.6839 53.2223 36.7993 53.1942 36.8715 53.1382C37.0157 53.0401 37.0878 52.935 37.0878 52.8229C37.0878 52.7108 37.0373 52.5987 36.9364 52.4866C36.8498 52.3744 36.7561 52.2624 36.6551 52.1502C36.5686 52.0381 36.5253 51.933 36.5253 51.8349C36.5541 51.4706 36.6551 50.9802 36.8282 50.3636C37.0157 49.747 37.2536 49.0533 37.5421 48.2826C37.8305 47.5119 38.1478 46.7271 38.4939 45.9284C38.84 45.1156 39.1862 44.3449 39.5323 43.6162C39.6909 43.2939 39.8712 43.0136 40.0731 42.7754C40.275 42.5372 40.448 42.3059 40.5923 42.0817C40.6644 41.9556 40.7293 41.7945 40.787 41.5983C40.8591 41.4021 40.9096 41.2129 40.9384 41.0308C40.9817 40.8486 41.0033 40.7294 41.0033 40.6734C41.0033 40.5053 40.9528 40.3791 40.8519 40.2951C40.7509 40.197 40.6356 40.1479 40.5058 40.1479C40.275 40.1479 40.0948 40.26 39.965 40.4842C39.763 40.8626 39.5178 41.36 39.2294 41.9766C38.941 42.5792 38.6381 43.2589 38.3209 44.0156C38.0035 44.7583 37.6863 45.529 37.369 46.3278C37.0662 47.1125 36.7777 47.8762 36.5037 48.6189C36.2441 49.3616 36.0278 50.0412 35.8547 50.6578C35.6961 51.2604 35.5951 51.7439 35.5519 52.1082C35.523 52.5006 35.6168 52.7808 35.8331 52.949ZM43.3594 44.5831C43.4748 44.6532 43.5686 44.6462 43.6406 44.5621C43.8714 44.2818 44.0445 44.0226 44.1598 43.7844C44.2896 43.5461 44.3761 43.399 44.4194 43.3429C44.4627 43.2728 44.4843 43.2098 44.4843 43.1538C44.4843 43.0416 44.4266 42.9506 44.3112 42.8805C44.2103 42.7964 44.0949 42.7544 43.9651 42.7544C43.8209 42.7544 43.7055 42.7964 43.619 42.8805C43.4748 43.0206 43.3594 43.1608 43.2729 43.3009C43.1863 43.441 43.1143 43.6162 43.0565 43.8264H43.0349C43.0061 43.9665 43.0277 44.1136 43.0998 44.2678C43.1719 44.4079 43.2585 44.513 43.3594 44.5831ZM40.2226 52.0662C40.4534 52.2343 40.6842 52.3184 40.9149 52.3184C41.0736 52.3184 41.1889 52.2904 41.261 52.2343C41.4053 52.1363 41.4773 52.0241 41.4773 51.898C41.4773 51.7299 41.3836 51.5827 41.1961 51.4566C41.0087 51.3165 40.9149 51.2254 40.9149 51.1833C40.9438 50.6929 41.0086 50.2935 41.1096 49.9852C41.225 49.6629 41.362 49.3686 41.5206 49.1024C41.6793 48.8221 41.8523 48.4998 42.0398 48.1355C42.2273 47.7711 42.4148 47.2947 42.6022 46.7061C42.66 46.5099 42.6167 46.3558 42.4725 46.2437C42.3283 46.1315 42.1624 46.0755 41.9749 46.0755C41.7009 46.0755 41.5206 46.1946 41.4341 46.4329C41.2755 46.9513 41.1168 47.3927 40.9582 47.7571C40.814 48.1215 40.6769 48.4647 40.5471 48.7871C40.4173 49.0953 40.302 49.4387 40.201 49.817C40.1001 50.1954 40.0208 50.6578 39.963 51.2044C39.9198 51.5967 40.0063 51.884 40.2226 52.0662ZM51.7344 53.2853C52.4843 53.6076 53.3136 53.7688 54.2222 53.7688C54.4673 53.7688 54.7125 53.7548 54.9577 53.7267C55.2028 53.7127 55.448 53.6777 55.6932 53.6216C56.6595 53.4395 57.4094 53.1873 57.943 52.8649C58.4766 52.5567 58.866 52.2693 59.1112 52.0031C59.3563 51.7228 59.5294 51.5547 59.6304 51.4986C59.7746 51.4146 59.8755 51.2955 59.9333 51.1413C60.0053 50.9871 60.0414 50.84 60.0414 50.6999C60.0414 50.4476 59.9549 50.3215 59.7818 50.3215C59.7241 50.3215 59.652 50.3425 59.5655 50.3846C59.3347 50.5667 59.0679 50.798 58.7651 51.0782C58.4766 51.3585 58.0728 51.6387 57.5536 51.919C57.0488 52.1853 56.3494 52.4235 55.4553 52.6337C55.0659 52.7178 54.6836 52.7598 54.3087 52.7598C53.5299 52.7598 52.8304 52.6267 52.2103 52.3605C51.5901 52.0802 51.1647 51.7859 50.934 51.4776C50.6167 51.0292 50.4581 50.4967 50.4581 49.8801C50.4581 49.1794 50.6383 48.4508 50.9989 47.694C51.3594 46.9233 51.7848 46.2297 52.2752 45.6131C52.8377 44.8984 53.5155 44.2187 54.3087 43.5742C55.1163 42.9296 55.9528 42.376 56.8181 41.9136C57.6978 41.4511 58.5126 41.1498 59.2626 41.0097C59.3347 40.9957 59.4068 40.9887 59.479 40.9887C59.5655 40.9747 59.6448 40.9677 59.7169 40.9677C60.2505 40.9677 60.712 41.1148 61.1014 41.4091C61.5052 41.6894 61.7071 41.9906 61.7071 42.313V42.334C61.7071 42.5722 61.8224 42.6913 62.0535 42.6913C62.2117 42.6913 62.378 42.6212 62.5511 42.4811C62.7384 42.341 62.8323 42.1658 62.8323 41.9556C62.7167 41.2549 62.3706 40.7435 61.7937 40.4212C61.2168 40.0989 60.5966 39.9377 59.9333 39.9377C59.6015 39.9377 59.3131 39.9658 59.0679 40.0218C58.1882 40.19 57.2796 40.5263 56.3422 41.0308C55.4048 41.5212 54.5106 42.1098 53.6597 42.7964C52.8088 43.483 52.0733 44.2187 51.4532 45.0035C51.1215 45.4239 50.7897 45.9003 50.4581 46.4329C50.1407 46.9513 49.8811 47.4978 49.6793 48.0724C49.4774 48.6329 49.3764 49.2075 49.3764 49.796C49.3764 50.1884 49.4341 50.5738 49.5495 50.9521C49.6648 51.3165 49.8451 51.6808 50.0903 52.0452C50.4508 52.5636 50.9989 52.9771 51.7344 53.2853ZM63.0956 52.1713L63.3552 52.2133H63.6148C64.2057 52.2133 64.7539 52.1082 65.2589 51.898C65.7632 51.6738 66.2175 51.4006 66.6218 51.0782C67.0254 50.7559 67.3573 50.4337 67.6169 50.1113C67.9049 49.831 68.1144 49.5368 68.2442 49.2285C68.374 48.9202 68.4389 48.6329 68.4389 48.3667C68.4389 47.9323 68.2943 47.5679 68.0063 47.2736C67.7176 46.9654 67.314 46.8112 66.7948 46.8112H66.6434C66.6001 46.8112 66.5494 46.8182 66.492 46.8322C66.2033 46.8603 65.9221 46.9023 65.6483 46.9584C65.3738 47.0144 65.1359 47.0774 64.9344 47.1475C64.7181 47.2176 64.6099 47.3648 64.6099 47.5889C64.6099 47.7151 64.6532 47.8342 64.7397 47.9463C64.8404 48.0584 64.9628 48.1144 65.1075 48.1144C65.1507 48.1144 65.2156 48.1004 65.3022 48.0724C65.4604 48.0023 65.6483 47.9533 65.8646 47.9253C66.0809 47.8832 66.3041 47.8482 66.5352 47.8202C66.6792 47.8062 66.8381 47.8482 67.0111 47.9463C67.1842 48.0444 67.2707 48.2335 67.2707 48.5138C67.2707 48.6399 67.2417 48.8011 67.1842 48.9973C67.1261 49.1794 67.0179 49.3896 66.8597 49.6279C66.542 50.0343 66.0877 50.4126 65.4968 50.7629C64.9196 51.0993 64.3138 51.2674 63.6797 51.2674H63.485C63.4269 51.2674 63.362 51.2604 63.2903 51.2464C63.0159 51.2464 62.7711 51.0922 62.5548 50.784C62.3527 50.4757 62.2519 50.1043 62.2519 49.6699C62.2519 49.3896 62.302 49.1094 62.4033 48.8291C62.5331 48.4648 62.7421 48.1355 63.0307 47.8412C63.3187 47.5329 63.6432 47.2876 64.0042 47.1055C64.3645 46.9233 64.7181 46.8322 65.0642 46.8322C65.194 46.8322 65.2873 46.8393 65.3454 46.8532C65.5469 46.8953 65.7058 46.8672 65.8213 46.7692C65.9511 46.657 66.016 46.545 66.016 46.4329C66.016 46.2647 65.9005 46.1526 65.6699 46.0965C65.4536 46.0405 65.2224 46.0125 64.9777 46.0125C64.4869 46.0125 64.0042 46.1246 63.5283 46.3488C63.0523 46.573 62.6339 46.8743 62.2736 47.2526C61.9126 47.617 61.646 48.0233 61.4729 48.4718C61.3142 48.9062 61.2349 49.3196 61.2349 49.712C61.2349 50.3145 61.3935 50.861 61.7109 51.3515C62.0424 51.8279 62.5041 52.1012 63.0956 52.1713ZM80.8531 52.5076C80.9977 52.7738 81.2499 52.907 81.6102 52.907C81.7116 52.907 81.7833 52.872 81.8266 52.8019C81.8698 52.7318 81.8915 52.6477 81.8915 52.5496C81.8915 52.2834 81.8123 52.0381 81.6535 51.8139C81.7116 51.4496 81.8123 50.9871 81.9564 50.4266C82.1152 49.8661 82.3025 49.3406 82.5188 48.8501C82.7642 48.3176 82.9298 47.8692 83.0164 47.5049C83.1177 47.1265 83.1678 46.8112 83.1678 46.559C83.1678 46.1806 83.0745 45.9214 82.8866 45.7812C82.6993 45.6411 82.483 45.571 82.2376 45.571C82.0361 45.571 81.8266 45.6061 81.6102 45.6761C81.3939 45.7322 81.2066 45.7952 81.0478 45.8653C80.5286 46.0895 80.0817 46.3067 79.7065 46.5169C79.3462 46.7131 79.0001 46.9444 78.6682 47.2106C78.3511 47.4628 77.9833 47.7921 77.5649 48.1985C77.3776 48.3807 77.2045 48.5559 77.0457 48.724C76.9017 48.8782 76.7286 49.0323 76.5265 49.1865C76.5414 48.4157 76.4832 47.8272 76.3534 47.4208C76.2385 47.0144 76.0871 46.7342 75.8992 46.58C75.7119 46.4118 75.503 46.3278 75.2718 46.3278C75.1278 46.3278 74.9838 46.3488 74.8391 46.3908C74.6951 46.4329 74.5579 46.4889 74.4281 46.559C73.938 46.7692 73.527 46.9583 73.1951 47.1265C72.8638 47.2947 72.5461 47.4909 72.2432 47.7151C71.9552 47.9393 71.6091 48.2476 71.2048 48.6399C71.0176 48.8221 70.8587 48.9692 70.7289 49.0814C70.6139 49.1794 70.4767 49.3476 70.3179 49.5858C70.3611 49.1935 70.4693 48.8291 70.6424 48.4928C70.8303 48.1425 71.0101 47.8482 71.1832 47.61C71.3563 47.3577 71.4428 47.1896 71.4428 47.1055C71.4718 46.9093 71.4286 46.7552 71.313 46.6431C71.2122 46.5309 71.0825 46.4749 70.9236 46.4749C70.6931 46.4749 70.5126 46.587 70.3828 46.8112C70.1813 47.2036 69.9575 47.666 69.7122 48.1985C69.4816 48.717 69.2869 49.2425 69.1281 49.775C68.9698 50.3075 68.8901 50.784 68.8901 51.2044C68.8901 51.6808 69.0273 51.919 69.3011 51.919C69.4167 51.919 69.5391 51.8489 69.6689 51.7088L69.7987 51.3305C69.9001 51.0782 70.1306 50.7559 70.4909 50.3636C70.8371 49.9992 71.2555 49.6069 71.7457 49.1865C72.2364 48.7661 72.734 48.3877 73.2383 48.0514C73.7433 47.7151 74.1902 47.4909 74.5796 47.3787C74.7959 47.3087 74.9547 47.3577 75.0555 47.5259C75.1711 47.694 75.2434 47.9323 75.2718 48.2406C75.3151 48.5348 75.3367 48.8501 75.3367 49.1865V49.3967C75.3225 49.3967 75.2934 49.4878 75.2502 49.6699C75.2069 49.8381 75.1278 50.2514 75.0122 50.9101C74.9689 51.1343 74.998 51.3024 75.0987 51.4146C75.2143 51.5126 75.3441 51.5617 75.4881 51.5617C75.7045 51.5617 75.8924 51.4706 76.0506 51.2884C76.152 51.1763 76.2885 50.9731 76.4616 50.6789C76.6347 50.3846 76.8226 50.1253 77.0241 49.9011C77.3992 49.4947 77.8461 49.0814 78.3653 48.661C78.8845 48.2406 79.4037 47.8622 79.9229 47.5259C80.4569 47.1896 80.9254 46.9654 81.329 46.8532C81.3871 46.8252 81.4372 46.8112 81.4804 46.8112H81.6319C81.8198 46.8112 81.9131 46.9093 81.9131 47.1055C81.9131 47.3577 81.7332 47.8762 81.3723 48.661C81.214 49.0113 81.0552 49.4597 80.8963 50.0062C80.7381 50.5387 80.6584 51.0502 80.6584 51.5407C80.6584 51.919 80.7233 52.2414 80.8531 52.5076ZM84.3409 53.6847C84.4707 53.8669 84.6079 53.958 84.7519 53.958C84.8527 53.958 84.9608 53.9229 85.0764 53.8529C85.192 53.7688 85.2711 53.6847 85.3144 53.6006C85.3577 53.5305 85.3793 53.4675 85.3793 53.4114C85.3793 53.2853 85.3434 53.1592 85.2711 53.0331C85.1988 52.921 85.163 52.7948 85.163 52.6547C85.1487 52.2624 85.1988 51.7649 85.3144 51.1623C85.4442 50.5457 85.6098 49.8871 85.8119 49.1865C86.0141 48.4858 86.2304 47.7991 86.4609 47.1265C86.6915 46.4399 86.9152 45.8233 87.1315 45.2768C87.4202 45.2487 87.838 45.2347 88.3863 45.2347C88.9487 45.2207 89.4753 45.1857 89.9655 45.1296C90.1095 45.1156 90.2034 45.0806 90.2467 45.0245C90.3042 44.9544 90.3332 44.8914 90.3332 44.8353C90.3332 44.7373 90.2974 44.6462 90.2251 44.5621C90.1527 44.478 90.081 44.4289 90.0087 44.415C89.6626 44.3729 89.3523 44.3449 89.0785 44.3309C88.8189 44.3169 88.5667 44.3098 88.3214 44.3098H87.932C87.8022 44.3098 87.6724 44.3169 87.5426 44.3309C87.6724 44.0506 87.8164 43.7423 87.9752 43.406C88.1341 43.0697 88.2855 42.7614 88.4295 42.4811C88.5735 42.1868 88.6891 41.9837 88.7756 41.8715C89.3239 41.0588 89.8214 40.6524 90.2683 40.6524C90.701 40.6524 91.1046 41.0168 91.4798 41.7454C91.667 42.0957 91.7826 42.369 91.8259 42.5652C91.8834 42.7474 92.0132 42.8385 92.2153 42.8385C92.316 42.8385 92.41 42.8104 92.4965 42.7544C92.583 42.6983 92.6263 42.6143 92.6263 42.5021V42.4811C92.5972 42.0047 92.5398 41.6333 92.4532 41.3671C92.3809 41.0868 92.2227 40.7645 91.9773 40.4002C91.79 40.0919 91.5589 39.8676 91.285 39.7275C91.0112 39.5874 90.7226 39.5173 90.4197 39.5173C90.0161 39.5173 89.6119 39.6364 89.2083 39.8747C88.8047 40.0989 88.4586 40.4352 88.1699 40.8836C87.9827 41.1779 87.7373 41.6403 87.4344 42.2709C87.1458 42.8875 86.8361 43.5952 86.5042 44.3939H86.3744C86.2446 44.3939 86.1074 44.478 85.9634 44.6462C85.8194 44.8143 85.7761 44.9895 85.8336 45.1717C85.8478 45.3258 85.9275 45.4169 86.0715 45.4449H86.0932C85.7613 46.3138 85.4442 47.2036 85.1413 48.1144C84.8527 49.0253 84.6147 49.8801 84.4274 50.6789C84.2544 51.4776 84.1679 52.1573 84.1679 52.7178C84.1679 53.1802 84.2253 53.5025 84.3409 53.6847ZM90.7881 52.2133H91.0477C91.6392 52.2133 92.1868 52.1082 92.6918 51.898C93.1968 51.6738 93.6511 51.4006 94.0547 51.0782C94.4583 50.7559 94.7902 50.4337 95.0498 50.1113C95.3384 49.831 95.5473 49.5368 95.6771 49.2285C95.8069 48.9202 95.8718 48.6329 95.8718 48.3667C95.8718 47.9323 95.7278 47.5679 95.4392 47.2736C95.1505 46.9654 94.7469 46.8112 94.2277 46.8112H94.0763C94.033 46.8112 93.9824 46.8182 93.9249 46.8322C93.6362 46.8603 93.355 46.9023 93.0812 46.9584C92.8074 47.0144 92.5694 47.0774 92.3673 47.1475C92.151 47.2176 92.0428 47.3648 92.0428 47.5889C92.0428 47.7151 92.0861 47.8342 92.1726 47.9463C92.2734 48.0584 92.3964 48.1144 92.5404 48.1144C92.5836 48.1144 92.6485 48.1004 92.7351 48.0724C92.8939 48.0023 93.0812 47.9533 93.2975 47.9253C93.5139 47.8832 93.7376 47.8482 93.9681 47.8202C94.1122 47.8062 94.271 47.8482 94.4441 47.9463C94.6171 48.0444 94.7037 48.2335 94.7037 48.5138C94.7037 48.6399 94.6746 48.8011 94.6171 48.9973C94.5596 49.1794 94.4515 49.3896 94.2926 49.6279C93.9756 50.0343 93.5213 50.4126 92.9298 50.7629C92.3531 51.0993 91.7474 51.2674 91.1126 51.2674H90.9179C90.8604 51.2674 90.7955 51.2604 90.7232 51.2464C90.4494 51.2464 90.204 51.0922 89.9877 50.784C89.7856 50.4757 89.6848 50.1043 89.6848 49.6699C89.6848 49.3896 89.7355 49.1094 89.8363 48.8291C89.9661 48.4648 90.175 48.1355 90.4636 47.8412C90.7523 47.5329 91.0768 47.2876 91.4371 47.1055C91.7975 46.9233 92.151 46.8322 92.4971 46.8322C92.6269 46.8322 92.7209 46.8393 92.7783 46.8532C92.9805 46.8953 93.1387 46.8672 93.2543 46.7692C93.3841 46.657 93.449 46.545 93.449 46.4329C93.449 46.2647 93.3334 46.1526 93.1028 46.0965C92.8865 46.0405 92.656 46.0125 92.4106 46.0125C91.9204 46.0125 91.4371 46.1246 90.9612 46.3488C90.4853 46.573 90.0668 46.8743 89.7065 47.2526C89.3461 47.617 89.0791 48.0233 88.9061 48.4718C88.7472 48.9062 88.6681 49.3196 88.6681 49.712C88.6681 50.3145 88.8269 50.861 89.144 51.3515C89.4759 51.8279 89.937 52.1012 90.5285 52.1713L90.7881 52.2133ZM97.1024 52.1292C97.218 52.2273 97.3404 52.2764 97.4702 52.2764C97.6142 52.2764 97.744 52.2273 97.8596 52.1292C97.9894 52.0171 98.0543 51.884 98.0543 51.7299C98.0543 51.6177 98.0401 51.5057 98.011 51.3935C97.982 51.2814 97.9678 51.2114 97.9678 51.1833C97.9678 51.0292 97.982 50.8891 98.011 50.7629C98.0543 50.6368 98.0759 50.5247 98.0759 50.4266C98.4944 49.9082 98.9486 49.4457 99.4388 49.0393C99.9438 48.6329 100.434 48.2966 100.91 48.0304C101.386 47.7501 101.783 47.5609 102.1 47.4628C102.359 47.3787 102.59 47.3367 102.792 47.3367C103.124 47.3367 103.39 47.4348 103.592 47.631C103.809 47.8131 103.967 48.0654 104.068 48.3877C104.141 48.5839 104.227 48.724 104.328 48.8081C104.443 48.8922 104.552 48.9342 104.652 48.9342C104.912 48.9342 105.042 48.8221 105.042 48.5979C105.042 48.0093 104.934 47.5539 104.717 47.2316C104.501 46.9093 104.227 46.6851 103.895 46.559C103.563 46.4329 103.232 46.3698 102.9 46.3698C102.438 46.3698 102.064 46.4399 101.775 46.58C101.112 46.8743 100.578 47.1756 100.174 47.4838C99.7707 47.7921 99.3164 48.1845 98.8114 48.661C98.898 48.4928 98.9987 48.2406 99.1143 47.9042L99.4604 46.8953C99.5902 46.559 99.6984 46.3138 99.7849 46.1596C99.8714 46.0054 99.9147 45.8653 99.9147 45.7392C99.9147 45.585 99.8572 45.4659 99.7417 45.3819C99.6409 45.2838 99.5111 45.2347 99.3522 45.2347C99.2082 45.2347 99.0636 45.2838 98.9196 45.3819C98.7898 45.4799 98.689 45.6411 98.6167 45.8653C98.516 46.2156 98.3572 46.6991 98.1408 47.3157C97.9245 47.9182 97.7082 48.5629 97.4918 49.2495C97.2897 49.9361 97.1241 50.5878 96.9943 51.2044L96.951 51.4146V51.5827C96.951 51.835 97.0017 52.0171 97.1024 52.1292ZM108.577 53.7478C108.62 53.7618 108.671 53.7688 108.729 53.7688C108.931 53.7688 109.096 53.7267 109.226 53.6427C109.37 53.5586 109.442 53.4605 109.442 53.3484C109.442 53.2643 109.385 53.1732 109.269 53.0751C109.169 52.9911 108.988 52.907 108.729 52.8229C108.296 52.6968 107.907 52.4795 107.56 52.1713C107.214 51.863 107.041 51.3935 107.041 50.7629V50.4897L107.084 50.1954C107.2 49.5788 107.351 48.9202 107.539 48.2195C107.741 47.5189 108.007 46.7411 108.339 45.8863C108.671 45.8723 109.046 45.8653 109.464 45.8653C109.883 45.8513 110.264 45.8233 110.611 45.7812C110.769 45.7672 110.87 45.7322 110.913 45.6761C110.971 45.6061 111 45.536 111 45.4659C111 45.3679 110.964 45.2768 110.892 45.1927C110.82 45.1086 110.748 45.0595 110.676 45.0455C110.286 45.0035 109.933 44.9755 109.616 44.9615C109.313 44.9475 109.017 44.9404 108.729 44.9404C108.844 44.7022 108.952 44.464 109.053 44.2258C109.169 43.9875 109.291 43.7353 109.421 43.4691L110.762 40.6314C110.791 40.5473 110.805 40.4913 110.805 40.4632C110.805 40.3511 110.748 40.267 110.632 40.211C110.531 40.1409 110.408 40.1059 110.264 40.1059C110.12 40.1059 109.976 40.1409 109.832 40.211C109.702 40.267 109.601 40.3581 109.529 40.4842C109.269 40.9607 108.952 41.6123 108.577 42.4391C108.217 43.2518 107.856 44.1136 107.495 45.0245L106.846 45.0455C106.731 45.0455 106.609 45.1156 106.479 45.2557C106.349 45.3959 106.284 45.543 106.284 45.6972C106.284 45.9634 106.4 46.0965 106.63 46.0965C106.702 46.0965 106.774 46.0825 106.846 46.0545C106.919 46.0264 106.998 46.0125 107.084 46.0125H107.106C106.832 46.7411 106.594 47.4418 106.392 48.1144C106.205 48.7731 106.075 49.3476 106.003 49.8381C105.96 50.1463 105.938 50.4337 105.938 50.6999C105.938 51.3725 106.06 51.919 106.306 52.3394C106.551 52.7458 106.861 53.0541 107.236 53.2643C107.625 53.4745 108.022 53.6287 108.426 53.7267C108.483 53.7407 108.534 53.7478 108.577 53.7478Z" fill="#197B7B"/>
</svg>
